<?xml version="1.0" encoding="utf-8"?>
<svg id="master-artboard" viewBox="0 0 1437.2139892578125 574.0298461914062" version="1.1" xmlns="http://www.w3.org/2000/svg" x="0px" y="0px" style="enable-background:new 0 0 336 235.2;" width="1437.2139892578125px" height="574.0298461914062px"><rect id="ee-background" x="0" y="0" width="1437.2139892578125" height="574.0298461914062" style="fill: white; fill-opacity: 0; pointer-events: none;"/><g transform="matrix(8.697761535644531, 0, 0, 8.697761535644531, 440.2786512991661, 0.000004032950982946204)"><g><g><path d="M 25 24 H 39 V 26 H 25 V 24 Z"/><path d="M 28 42 H 36 V 44 H 28 V 42 Z"/><path d="M 19.395000457763672 7 L 15 7 L 15 11 L 19.795000076293945 11 Z"/><path d="M 28 28 H 36 V 36 H 28 V 28 Z"/><path d="M 26 38 H 38 V 40 H 26 V 38 Z"/><path d="M 3 6 H 13 V 12 H 3 V 6 Z"/><path d="M 28 53.68000030517578 L 32 59.27899932861328 L 36 53.68000030517578 L 36 46 L 28 46 Z"/><path d="M 49 7 L 44.60499954223633 7 L 44.20500183105469 11 L 49 11 Z"/><path d="M 51 6 H 61 V 12 H 51 V 6 Z"/><path d="M42.958,3.372L41.586,2H22.414l-1.372,1.372L22.905,22h18.19L42.958,3.372z M35,18h-6v-2h6V18z M37,14H27v-2h10V14z     M39,10H25V8h14V10z M41,6H23V4h18V6z"/></g><g><path d="M 39.674999 54 H 52.323999 V 55.999 H 39.674999 V 54 Z" transform="matrix(0.9486 -0.3165 0.3165 0.9486 -15.0436 17.3878)"/></g><g><path d="M 40 60 H 52 V 62 H 40 V 60 Z"/></g><g><path d="M 17 48.674999 H 18.999 V 61.323999 H 17 V 48.674999 Z" transform="matrix(0.3162 -0.9487 0.9487 0.3162 -39.8697 54.6838)"/></g><g><path d="M 12 60 H 24 V 62 H 12 V 60 Z"/></g></g><text x="0" y="79" fill="#000000" font-size="5px" font-weight="bold" font-family="'Helvetica Neue', Helvetica, Arial-Unicode, Arial, Sans-serif" style="fill: rgb(0, 0, 0); font-size: 5px; font-weight: bold; font-family: 'Helvetica Neue', Helvetica, Arial-Unicode, Arial, sans-serif; white-space: pre;">Created by Template</text><text x="0" y="84" fill="#000000" font-size="5px" font-weight="bold" font-family="'Helvetica Neue', Helvetica, Arial-Unicode, Arial, Sans-serif" style="fill: rgb(0, 0, 0); font-size: 5px; font-weight: bold; font-family: 'Helvetica Neue', Helvetica, Arial-Unicode, Arial, sans-serif; white-space: pre;">from the Noun Project</text></g></svg>