<svg xmlns="http://www.w3.org/2000/svg" xmlns:xlink="http://www.w3.org/1999/xlink" version="1.1" x="0px" y="0px" viewBox="0 0 64 80" style="enable-background:new 0 0 64 64;" xml:space="preserve"><path d="M57,57h3v-2h-3V42h3v-2h-3V27h3v-2h-3V12h3v-2h-3V2h-2v8h-8V2h-2v8H19V2h-2v8H9V2H7v8H4v2h3v13H4v2h3v13H4v2h3v13H4v2h3v3H2  v2h6h10h6v-2h-5v-3h26v3h-5v2h6h10h6v-2h-5V57z M9,32h8v3H9V32z M55,20h-8v-3h8V20z M55,50h-8v-3h8V50z M45,54.33L34.117,48.5  L45,42.67V54.33z M42.016,42L32,47.366L21.984,42H42.016z M21.984,40L32,34.634L42.016,40H21.984z M34.117,33.5L45,27.67v11.66  L34.117,33.5z M42.016,27L32,32.366L21.984,27H42.016z M21.984,25L32,19.634L42.016,25H21.984z M45,24.33L34.117,18.5L45,12.67  V24.33z M32,17.366L21.984,12h20.032L32,17.366z M29.883,18.5L19,24.33V12.67L29.883,18.5z M19,27.67l10.883,5.83L19,39.33V27.67z   M29.883,48.5L19,54.33V42.67L29.883,48.5z M32,49.634L42.016,55H21.984L32,49.634z M47,52h8v3h-8V52z M55,45h-8v-3h8V45z M55,40h-8  V27h8V40z M47,25v-3h8v3H47z M55,12v3h-8v-3H55z M9,12h8v13H9V12z M17,27v3H9v-3H17z M9,37h8v3H9V37z M9,42h8v13H9V42z M17,60H9v-3  h8V60z M47,60v-3h8v3H47z"/><text x="0" y="79" fill="#000000" font-size="5px" font-weight="bold" font-family="'Helvetica Neue', Helvetica, Arial-Unicode, Arial, Sans-serif">Created by Becris</text><text x="0" y="84" fill="#000000" font-size="5px" font-weight="bold" font-family="'Helvetica Neue', Helvetica, Arial-Unicode, Arial, Sans-serif">from the Noun Project</text></svg>