<?xml version="1.0" standalone="no"?>
<!DOCTYPE svg PUBLIC "-//W3C//DTD SVG 20010904//EN"
 "http://www.w3.org/TR/2001/REC-SVG-20010904/DTD/svg10.dtd">
<svg version="1.0" xmlns="http://www.w3.org/2000/svg"
 width="697.000000pt" height="562.000000pt" viewBox="0 0 697.000000 562.000000"
 preserveAspectRatio="xMidYMid meet">
<metadata>
Created by potrace 1.15, written by Peter Selinger 2001-2017
</metadata>
<g transform="translate(0.000000,562.000000) scale(0.100000,-0.100000)"
fill="#000000" stroke="none">
<path d="M4292 5178 c-7 -7 -12 -24 -12 -38 0 -19 73 -305 106 -412 3 -12 -5
-19 -32 -28 -52 -17 -120 -83 -140 -136 -20 -51 -14 -116 12 -145 68 -76 226
-23 283 94 29 59 27 79 -19 252 -22 83 -40 162 -40 177 0 39 32 44 121 18 138
-41 161 -67 204 -225 15 -55 29 -105 32 -111 2 -7 -10 -14 -30 -18 -43 -8
-112 -67 -137 -117 -37 -71 -20 -162 35 -187 94 -43 233 38 265 154 12 43 10
56 -56 302 -67 251 -70 258 -110 298 -39 40 -45 42 -235 87 -208 51 -229 53
-247 35z"/>
<path d="M6039 4182 c-191 -608 -214 -688 -201 -699 9 -7 21 -13 26 -13 10 0
528 1283 526 1302 0 6 -85 67 -125 90 -7 4 -95 -261 -226 -680z"/>
<path d="M5308 4690 c-21 -13 -25 -27 -87 -290 l-52 -215 -61 3 c-107 7 -190
-31 -235 -106 -45 -73 -17 -155 64 -188 101 -43 264 11 307 100 8 18 34 111
56 207 46 196 59 220 109 195 15 -8 57 -46 94 -85 64 -68 87 -112 87 -168 0
-20 -27 -148 -50 -233 l-9 -35 -78 0 c-64 0 -88 -5 -127 -25 -98 -50 -141
-147 -97 -217 71 -113 309 -83 376 46 21 43 135 536 135 589 0 74 -30 117
-175 248 -71 64 -143 130 -160 145 -35 32 -73 43 -97 29z"/>
<path d="M3755 4513 c-60 -14 -343 -107 -362 -119 -47 -30 -32 -54 133 -213
l157 -150 -26 -31 c-65 -76 -60 -230 8 -274 92 -60 214 44 215 182 0 30 -7 67
-16 85 -9 18 -70 83 -135 145 -69 66 -119 122 -119 133 0 23 23 36 114 61 122
34 147 24 292 -115 l52 -49 -31 -50 c-43 -69 -50 -158 -17 -217 27 -47 66 -66
117 -58 101 17 167 182 114 285 -20 37 -342 347 -384 368 -28 14 -86 23 -112
17z"/>
<path d="M2566 4281 l-68 -39 653 -523 c360 -288 709 -568 777 -623 117 -94
124 -98 148 -86 23 13 23 14 7 32 -37 41 -1425 1273 -1436 1275 -7 1 -43 -15
-81 -36z"/>
<path d="M2250 3935 c-5 -14 -34 -86 -65 -160 -30 -74 -55 -137 -55 -140 0 -3
29 -5 65 -5 l66 0 -71 -133 c-70 -134 -79 -157 -60 -157 11 0 225 319 218 325
-2 1 -34 6 -71 11 l-68 9 60 123 c34 68 61 125 61 127 0 3 -58 25 -67 25 -2 0
-8 -11 -13 -25z"/>
<path d="M4535 3906 c-39 -17 -124 -108 -174 -186 -57 -87 -82 -161 -88 -255
-11 -167 40 -287 183 -434 l92 -94 -15 -126 c-28 -234 -5 -520 68 -839 25
-107 40 -151 70 -201 175 -291 119 -696 -156 -1106 l-80 -120 0 -76 c0 -67 3
-80 28 -112 58 -76 160 -99 247 -54 37 18 59 43 123 137 91 134 202 355 246
489 53 162 73 288 73 456 0 90 -6 179 -14 221 l-15 72 48 -14 c182 -54 306
-134 325 -209 16 -64 -61 -190 -200 -328 -107 -106 -126 -137 -126 -207 0 -84
44 -153 113 -179 45 -17 124 -13 165 8 48 25 246 228 301 309 91 134 131 250
131 378 0 243 -159 431 -467 553 -57 23 -107 41 -112 41 -18 0 -32 73 -38 190
-6 118 5 188 42 275 l15 37 46 -41 c112 -99 258 -131 432 -95 149 30 365 136
403 197 31 50 21 112 -25 154 -54 49 -87 45 -231 -27 -66 -33 -149 -68 -185
-76 -123 -31 -221 3 -281 96 -18 28 -35 49 -38 47 -118 -66 -213 -81 -317 -48
-122 37 -208 122 -244 240 -17 54 -21 58 -104 114 -104 69 -192 156 -226 223
-19 37 -25 64 -25 114 0 83 25 135 110 230 72 80 86 119 64 177 -25 64 -102
97 -164 69z"/>
<path d="M1882 3852 c-9 -6 -11 -39 -6 -140 4 -72 10 -136 14 -142 5 -7 20 -5
51 8 l45 19 -4 -128 c-3 -86 -1 -129 6 -129 6 0 13 8 15 18 11 38 39 293 34
299 -3 3 -24 -2 -47 -11 -22 -9 -45 -16 -50 -16 -6 0 -10 47 -10 115 0 103 -2
115 -17 115 -10 0 -24 -4 -31 -8z"/>
<path d="M1207 3825 c-48 -17 -76 -41 -93 -82 -19 -45 -17 -97 5 -141 17 -33
17 -41 5 -62 -7 -14 -13 -43 -13 -65 -1 -131 161 -211 259 -129 l30 26 66 -61
c53 -48 70 -59 81 -50 10 9 -7 32 -89 118 -56 58 -105 107 -108 109 -4 1 -13
-4 -20 -13 -11 -13 -9 -19 9 -38 27 -30 27 -34 -9 -52 -79 -41 -170 16 -170
107 0 43 6 49 36 38 31 -12 30 -9 -5 29 -50 54 -46 128 10 175 34 29 97 35
137 12 31 -16 62 -65 62 -96 1 -23 2 -23 11 -7 6 10 8 34 5 53 -6 30 -4 34 15
34 61 0 119 -58 119 -120 0 -38 -23 -85 -46 -94 -19 -7 -17 -8 -33 22 -13 24
-31 28 -48 11 -8 -8 3 -34 41 -98 99 -162 105 -171 121 -165 13 5 7 22 -30 92
l-46 86 23 18 c13 10 26 18 30 18 13 0 48 87 48 119 0 89 -80 157 -173 148
-35 -3 -50 0 -54 9 -7 20 -63 51 -103 57 -20 4 -52 0 -73 -8z"/>
<path d="M2442 3568 l-114 -91 48 -27 47 -28 -107 -71 c-90 -60 -124 -91 -101
-91 12 0 295 145 295 151 0 4 -20 20 -45 36 -25 15 -45 30 -45 33 0 3 43 34
95 70 90 60 94 65 81 84 -7 12 -20 22 -27 23 -8 1 -65 -39 -127 -89z"/>
<path d="M5139 3416 c-313 -84 -346 -508 -50 -644 80 -37 192 -37 273 0 57 26
148 101 148 122 0 6 -37 38 -81 71 -80 59 -155 136 -178 185 -10 20 -7 18 14
-8 101 -124 413 -257 519 -222 55 18 57 52 9 117 -26 36 -122 107 -196 146
-35 18 -54 37 -69 66 -33 67 -118 137 -195 161 -73 23 -127 24 -194 6z"/>
<path d="M1749 3227 c-106 -30 -192 -108 -230 -207 -23 -61 -25 -179 -4 -239
37 -106 128 -187 243 -216 156 -40 326 44 395 193 33 72 31 207 -4 282 -32 68
-95 131 -163 165 -64 31 -169 41 -237 22z"/>
<path d="M3285 2960 c-19 -21 -18 -21 70 -110 l90 -90 -100 -100 -100 -100
100 -100 100 -100 -103 -103 -102 -102 97 -98 98 -97 -98 -98 c-53 -53 -97
-102 -97 -107 0 -5 42 -51 92 -102 l93 -93 -100 -100 -100 -100 100 -100 100
-100 -103 -103 -102 -102 97 -98 98 -97 -100 -100 -100 -100 98 -98 97 -97
-88 -88 -87 -87 -1383 0 -1382 0 0 -50 0 -50 3000 0 3000 0 0 50 0 50 -1402 0
-1403 0 -87 87 -88 88 102 102 103 103 -98 98 -97 97 100 100 100 100 -97 97
-98 98 98 98 c53 53 97 102 97 107 0 5 -42 51 -92 102 l-93 93 100 100 100
100 -100 100 -100 100 103 103 102 102 -97 98 -98 97 100 100 100 100 -98 98
-97 97 90 90 c50 50 89 96 88 104 -2 8 -11 19 -20 25 -15 9 -32 -3 -111 -82
l-92 -92 -91 91 -90 90 -19 -21z m285 -325 l75 -75 -80 -80 -80 -80 -77 77
-78 78 77 77 c43 43 80 78 83 78 3 0 39 -34 80 -75z m-12 -552 l-83 -83 -77
77 -78 78 82 82 83 83 77 -77 78 -78 -82 -82z m-8 -398 l-80 -80 -77 78 -78
77 80 80 80 80 77 -77 78 -78 -80 -80z m0 -250 l75 -75 -80 -80 -80 -80 -77
77 -78 78 77 77 c43 43 80 78 83 78 3 0 39 -34 80 -75z m-10 -550 l-80 -80
-77 78 -78 77 80 80 80 80 77 -77 78 -78 -80 -80z m-10 -400 l-80 -80 -77 78
-78 77 80 80 80 80 77 -77 78 -78 -80 -80z m-10 -230 l64 -65 -134 0 -134 0
64 65 c35 36 67 65 70 65 3 0 35 -29 70 -65z"/>
<path d="M1130 2963 c-85 -8 -168 -26 -211 -44 -140 -60 -167 -202 -59 -310
83 -83 309 -178 503 -211 l67 -12 0 -346 0 -345 -63 -23 c-275 -98 -428 -373
-388 -699 20 -166 85 -372 172 -546 38 -76 54 -94 101 -118 68 -35 157 -22
211 29 77 72 80 145 14 289 -147 321 -165 537 -53 641 50 46 148 82 226 82 61
0 106 15 153 52 l39 30 26 -25 c42 -39 67 -48 164 -58 206 -21 291 -101 291
-274 -1 -123 -33 -242 -124 -452 -52 -120 -59 -161 -34 -220 20 -48 41 -71 87
-94 74 -38 193 -13 237 50 56 78 159 355 191 511 24 119 26 287 4 380 -40 174
-151 312 -313 393 -51 26 -99 47 -107 47 -12 0 -14 56 -14 348 l0 347 88 17
c259 50 497 178 533 285 15 47 6 128 -18 161 -31 42 -102 81 -178 97 -42 10
-151 18 -274 22 l-204 6 6 -24 c4 -13 7 -32 7 -41 0 -15 9 -18 55 -18 l55 0 0
-57 c0 -32 6 -69 13 -83 11 -23 20 -25 92 -30 76 -5 79 -6 50 -18 -63 -28
-214 -63 -295 -69 -74 -5 -91 -10 -132 -39 -74 -50 -137 -67 -232 -62 -84 5
-135 23 -203 74 -23 18 -45 24 -81 24 -69 0 -191 25 -287 57 l-80 28 83 3 83
3 15 34 c8 19 14 57 14 85 l0 50 55 0 55 0 0 40 0 40 -152 -2 c-84 0 -169 -3
-188 -5z"/>
</g>
</svg>
