<?xml version="1.0" standalone="no"?>
<!DOCTYPE svg PUBLIC "-//W3C//DTD SVG 20010904//EN"
 "http://www.w3.org/TR/2001/REC-SVG-20010904/DTD/svg10.dtd">
<svg version="1.0" xmlns="http://www.w3.org/2000/svg"
 width="265.000000pt" height="263.000000pt" viewBox="0 0 265.000000 263.000000"
 preserveAspectRatio="xMidYMid meet">
<metadata>
Created by potrace 1.15, written by Peter Selinger 2001-2017
</metadata>
<g transform="translate(0.000000,263.000000) scale(0.100000,-0.100000)"
fill="#000000" stroke="none">
<path d="M280 2425 l0 -164 -62 -3 -63 -3 0 -40 0 -40 63 -3 62 -3 0 -269 0
-269 -62 -3 -63 -3 0 -35 0 -35 63 -3 62 -3 0 -269 0 -269 -62 -3 -63 -3 0
-40 0 -40 63 -3 62 -3 0 -269 0 -269 -62 -3 -63 -3 -1 -37 -1 -38 63 0 64 0 0
-60 0 -59 -102 -3 -103 -3 -3 -43 -3 -42 460 0 461 0 0 45 0 45 -105 0 -106 0
3 58 3 57 538 3 537 2 0 -60 0 -59 -102 -3 -103 -3 -2 -42 -2 -43 463 0 463 0
-1 42 -1 43 -105 3 -105 3 3 59 4 60 59 0 59 0 0 40 0 40 -60 0 -59 0 -3 270
-3 270 63 0 62 0 0 45 0 45 -60 0 -60 0 0 270 0 270 60 0 60 0 0 40 0 40 -60
0 -60 0 0 270 0 270 60 0 60 0 0 45 0 45 -62 0 -63 0 3 165 3 165 -46 0 -45 0
0 -165 0 -165 -165 0 -165 0 0 165 0 165 -45 0 -46 0 3 -165 3 -165 -542 0
-543 0 0 165 0 165 -40 0 -40 0 0 -165 0 -165 -167 0 -168 0 3 165 3 165 -46
0 -45 0 0 -165z m420 -525 l0 -270 -165 0 -165 0 0 270 0 270 165 0 165 0 0
-270z m1019 266 c-12 -11 -386 -209 -394 -209 -11 0 -342 174 -380 200 -16 11
45 13 379 13 220 0 397 -2 395 -4z m561 -56 l0 -60 -165 0 -165 0 0 60 0 60
165 0 165 0 0 -60z m-1271 -89 l222 -118 -217 -117 c-119 -64 -220 -116 -225
-116 -5 0 -9 105 -9 235 0 129 2 235 4 235 2 0 103 -53 225 -119z m847 -348
c-4 -4 -107 49 -364 190 l-74 39 54 30 c29 16 109 59 178 96 69 36 143 76 165
89 l40 22 3 -231 c1 -127 0 -233 -2 -235z m424 227 l0 -60 -165 0 -165 0 0 60
0 60 165 0 165 0 0 -60z m-877 -89 c40 -22 117 -64 173 -93 181 -95 206 -87
-255 -87 -222 -1 -402 1 -399 4 9 9 392 214 401 215 4 0 40 -18 80 -39z m877
-118 l0 -63 -165 0 -165 0 0 58 c0 32 2 61 4 63 2 2 77 4 165 4 l161 0 0 -62z
m-1580 -203 l0 -60 -165 0 -165 0 0 60 0 60 165 0 165 0 0 -60z m1001 42 c-21
-15 -252 -140 -347 -189 l-31 -15 -184 97 c-101 54 -193 104 -204 112 -16 11
45 13 385 12 384 0 404 -1 381 -17z m579 -252 l0 -270 -165 0 -165 0 0 270 0
270 165 0 165 0 0 -270z m-1266 114 l217 -117 -222 -118 c-122 -66 -223 -119
-225 -119 -2 0 -4 106 -4 235 0 130 4 235 9 235 5 0 106 -52 225 -116z m846
-120 l0 -235 -72 39 c-40 22 -116 62 -168 90 -52 28 -119 64 -149 80 l-53 30
83 45 c46 25 143 77 214 116 72 39 133 70 138 71 4 0 7 -106 7 -236z m-1162 4
l3 -58 -168 0 -168 0 3 60 4 60 161 -2 162 -3 3 -57z m925 -211 l98 -52 -201
-3 c-111 -1 -290 -1 -397 0 l-197 3 199 107 199 106 100 -54 c56 -30 145 -78
199 -107z m-923 3 l0 -60 -164 0 -164 0 -4 56 c-1 31 -1 58 1 60 2 2 78 4 168
4 l163 0 0 -60z m-2 -417 l-3 -268 -162 -3 -162 -2 -3 270 -3 270 168 0 167 0
-2 -267z m1021 263 c-10 -10 -385 -208 -394 -209 -11 0 -395 202 -395 209 0 2
179 4 397 4 218 0 394 -2 392 -4z m561 -56 l0 -60 -165 0 -165 0 0 60 0 60
165 0 165 0 0 -60z m-1283 -81 c114 -61 214 -115 221 -119 9 -4 -66 -50 -203
-123 -120 -65 -221 -117 -226 -117 -5 0 -9 105 -9 235 0 129 2 235 4 235 2 0
98 -50 213 -111z m859 -356 c-4 -5 -412 211 -428 226 -4 3 91 58 210 122 l217
117 3 -231 c1 -126 0 -232 -2 -234z m424 227 l0 -60 -165 0 -165 0 0 60 0 60
165 0 165 0 0 -60z m-746 -160 l197 -105 -200 -3 c-110 -1 -293 -1 -407 0
l-208 3 200 107 c109 59 204 107 210 105 6 -1 100 -49 208 -107z m746 -50 l0
-60 -165 0 -165 0 0 60 0 60 165 0 165 0 0 -60z m-1582 -202 l3 -58 -168 0
-168 0 3 60 4 60 161 -2 162 -3 3 -57z m1582 2 l0 -60 -165 0 -165 0 0 60 0
60 165 0 165 0 0 -60z"/>
</g>
</svg>
