<?xml version="1.0" standalone="no"?>
<!DOCTYPE svg PUBLIC "-//W3C//DTD SVG 20010904//EN"
 "http://www.w3.org/TR/2001/REC-SVG-20010904/DTD/svg10.dtd">
<svg version="1.0" xmlns="http://www.w3.org/2000/svg"
 width="415.000000pt" height="371.000000pt" viewBox="0 0 415.000000 371.000000"
 preserveAspectRatio="xMidYMid meet">
<metadata>
Created by potrace 1.15, written by Peter Selinger 2001-2017
</metadata>
<g transform="translate(0.000000,371.000000) scale(0.100000,-0.100000)"
fill="#000000" stroke="none">
<path d="M1106 3035 c-20 -30 -38 -55 -39 -55 -2 0 -36 11 -75 24 -40 14 -72
22 -72 18 0 -4 14 -48 32 -99 l32 -91 48 24 c65 33 147 33 212 0 l47 -24 13
32 c7 17 23 55 36 84 12 29 21 54 19 57 -2 2 -33 -3 -69 -10 -36 -8 -68 -14
-72 -15 -4 0 -19 22 -33 49 -13 27 -29 52 -34 55 -4 3 -25 -19 -45 -49z"/>
<path d="M1054 2795 c-18 -8 -53 -39 -80 -70 -59 -69 -72 -76 -140 -76 -30 0
-54 -3 -54 -6 0 -18 69 -109 112 -147 68 -62 143 -89 235 -84 60 3 79 8 115
34 23 16 53 48 65 69 41 72 23 186 -38 242 -55 50 -149 67 -215 38z"/>
<path d="M372 2655 c-55 -46 -48 -74 71 -259 56 -89 114 -174 129 -191 l26
-30 171 0 c107 0 171 -4 171 -10 0 -5 -34 -102 -75 -214 -41 -113 -75 -209
-75 -214 0 -4 115 129 255 297 140 168 255 308 255 311 0 3 -139 5 -309 5
l-308 0 -40 63 c-171 266 -161 253 -210 263 -23 4 -36 0 -61 -21z"/>
<path d="M1273 2143 c-436 -520 -533 -638 -533 -645 0 -4 167 -8 370 -8 204 0
370 4 370 8 0 5 -25 116 -55 248 -31 131 -60 256 -64 277 -9 36 -8 37 18 37
25 0 29 -7 90 -192 99 -299 98 -298 137 -314 56 -23 114 16 114 76 0 25 -177
556 -201 602 -16 32 -71 88 -85 88 -7 0 -80 -80 -161 -177z"/>
<path d="M2450 2117 c-28 -14 -37 -53 -22 -97 6 -15 82 -124 169 -242 224
-301 231 -311 225 -328 -11 -35 -34 -40 -185 -40 l-149 0 36 42 c26 30 36 51
36 75 0 47 -37 83 -85 83 -32 0 -47 -11 -139 -100 -57 -55 -107 -100 -113
-100 -5 0 -15 17 -21 38 -20 65 -73 135 -122 160 -92 47 -183 9 -276 -117
l-59 -80 -605 0 c-659 -1 -664 -1 -780 -59 -30 -15 -85 -57 -122 -93 -87 -85
-134 -179 -151 -303 l-11 -86 -38 0 -38 0 0 -145 0 -144 30 -16 c17 -9 55 -15
94 -15 l65 0 10 53 c19 89 57 155 129 226 107 105 236 160 373 161 75 0 199
-33 265 -71 123 -70 223 -197 245 -311 l12 -58 837 0 837 0 6 44 c24 171 213
348 415 387 79 15 192 6 269 -21 72 -25 182 -99 229 -154 42 -48 89 -136 99
-186 14 -73 11 -70 81 -70 74 0 115 17 132 55 7 15 12 74 12 145 l0 120 -52 0
-53 0 3 146 c2 82 -2 169 -8 200 -15 70 -61 131 -125 163 l-49 26 -395 5 -395
5 -253 335 c-140 184 -261 343 -271 352 -24 24 -63 30 -92 15z"/>
<path d="M2085 1992 c-134 -63 -148 -235 -27 -318 94 -64 225 -19 268 91 55
146 -100 293 -241 227z"/>
<path d="M605 807 c-103 -31 -177 -95 -222 -192 -24 -51 -28 -73 -28 -145 0
-111 33 -188 112 -260 226 -207 593 -46 593 260 0 137 -84 267 -209 323 -55
25 -186 32 -246 14z m177 -213 c59 -30 87 -129 53 -194 -55 -106 -218 -97
-261 15 -23 62 -12 110 37 157 51 49 103 56 171 22z"/>
<path d="M3293 801 c-102 -35 -168 -99 -211 -204 -57 -141 -8 -320 112 -407
168 -124 397 -85 512 87 82 122 80 270 -4 393 -86 127 -260 183 -409 131z
m194 -209 c27 -15 58 -59 67 -95 10 -44 -10 -102 -49 -136 -61 -54 -143 -51
-199 7 -117 123 30 304 181 224z"/>
</g>
</svg>
