<?xml version="1.0" standalone="no"?>
<!DOCTYPE svg PUBLIC "-//W3C//DTD SVG 20010904//EN"
 "http://www.w3.org/TR/2001/REC-SVG-20010904/DTD/svg10.dtd">
<svg version="1.0" xmlns="http://www.w3.org/2000/svg"
 width="267.000000pt" height="267.000000pt" viewBox="0 0 267.000000 267.000000"
 preserveAspectRatio="xMidYMid meet">
<metadata>
Created by potrace 1.15, written by Peter Selinger 2001-2017
</metadata>
<g transform="translate(0.000000,267.000000) scale(0.100000,-0.100000)"
fill="#000000" stroke="none">
<path d="M905 2600 l-29 -30 38 -383 c21 -210 41 -386 45 -390 4 -4 176 -6
382 -5 l373 3 39 389 38 389 -27 28 -28 29 -401 0 -401 0 -29 -30z m805 -95
l0 -35 -375 0 -375 0 0 35 0 35 375 0 375 0 0 -35z m-90 -165 l0 -40 -290 0
-290 0 0 40 0 40 290 0 290 0 0 -40z m-80 -170 l0 -40 -207 0 -208 0 0 40 0
40 208 0 207 0 0 -40z m-82 -166 c-2 -19 -6 -34 -10 -34 -5 0 -60 0 -123 0
l-115 0 0 34 c0 19 4 36 10 38 5 2 62 2 125 0 l116 -3 -3 -35z"/>
<path d="M124 2457 c-2 -7 -3 -65 -2 -128 l3 -114 208 -3 207 -2 0 129 0 129
-205 1 c-164 1 -206 -1 -211 -12z"/>
<path d="M2124 2457 c-2 -7 -3 -65 -2 -128 l3 -114 208 -3 207 -2 0 129 0 129
-205 1 c-164 1 -206 -1 -211 -12z"/>
<path d="M620 2348 c0 -40 4 -79 8 -86 6 -9 34 -12 103 -10 107 3 97 -10 84
111 l-6 57 -95 0 -94 0 0 -72z"/>
<path d="M1856 2398 c-3 -13 -8 -51 -11 -85 l-6 -63 101 0 100 0 0 85 0 85
-90 0 c-85 0 -90 -1 -94 -22z"/>
<path d="M1040 1675 l0 -45 296 0 295 0 -3 43 -3 42 -292 3 -293 2 0 -45z"/>
<path d="M1164 1537 c-2 -7 -3 -82 -2 -167 l3 -155 168 -3 167 -2 0 170 0 170
-165 0 c-126 0 -167 -3 -171 -13z"/>
<path d="M1082 1088 l3 -43 250 0 250 0 3 43 3 42 -256 0 -256 0 3 -42z"/>
<path d="M1166 962 c-3 -5 -5 -26 -4 -46 l1 -36 169 0 168 0 0 39 c0 23 -5 41
-13 44 -24 9 -315 8 -321 -1z"/>
<path d="M1165 790 c-3 -5 -5 -77 -4 -159 l1 -150 86 -120 c47 -67 86 -120 87
-118 2 1 39 53 84 116 l81 114 0 163 0 164 -164 0 c-96 0 -167 -4 -171 -10z"/>
<path d="M507 533 c-3 -5 -8 -22 -11 -39 l-7 -31 243 -82 c134 -44 246 -81
250 -81 11 0 31 71 22 79 -11 9 -465 161 -481 161 -7 0 -14 -3 -16 -7z"/>
<path d="M1888 459 l-237 -80 11 -32 c6 -18 14 -35 17 -39 5 -6 487 146 499
157 2 2 -1 20 -8 39 -7 23 -18 36 -28 35 -9 0 -124 -36 -254 -80z"/>
<path d="M500 175 l0 -45 250 0 250 0 0 45 0 45 -250 0 -250 0 0 -45z"/>
<path d="M1666 212 c-3 -5 -5 -26 -4 -46 l1 -36 254 0 254 0 -3 43 -3 42 -247
3 c-136 1 -249 -2 -252 -6z"/>
</g>
</svg>
