<svg xmlns="http://www.w3.org/2000/svg" xmlns:xlink="http://www.w3.org/1999/xlink" version="1.1" x="0px" y="0px" viewBox="0 0 64 80" style="enable-background:new 0 0 64 64;" xml:space="preserve"><g><g><rect x="25" y="24" width="14" height="2"/><rect x="28" y="42" width="8" height="2"/><polygon points="19.395,7 15,7 15,11 19.795,11   "/><rect x="28" y="28" width="8" height="8"/><rect x="26" y="38" width="12" height="2"/><rect x="3" y="6" width="10" height="6"/><polygon points="28,53.68 32,59.279 36,53.68 36,46 28,46   "/><polygon points="49,7 44.605,7 44.205,11 49,11   "/><rect x="51" y="6" width="10" height="6"/><path d="M42.958,3.372L41.586,2H22.414l-1.372,1.372L22.905,22h18.19L42.958,3.372z M35,18h-6v-2h6V18z M37,14H27v-2h10V14z     M39,10H25V8h14V10z M41,6H23V4h18V6z"/></g><g><rect x="39.675" y="54" transform="matrix(0.9486 -0.3165 0.3165 0.9486 -15.0436 17.3878)" width="12.649" height="1.999"/></g><g><rect x="40" y="60" width="12" height="2"/></g><g><rect x="17" y="48.675" transform="matrix(0.3162 -0.9487 0.9487 0.3162 -39.8697 54.6838)" width="1.999" height="12.649"/></g><g><rect x="12" y="60" width="12" height="2"/></g></g><text x="0" y="79" fill="#000000" font-size="5px" font-weight="bold" font-family="'Helvetica Neue', Helvetica, Arial-Unicode, Arial, Sans-serif">Created by Template</text><text x="0" y="84" fill="#000000" font-size="5px" font-weight="bold" font-family="'Helvetica Neue', Helvetica, Arial-Unicode, Arial, Sans-serif">from the Noun Project</text></svg>