<svg xmlns="http://www.w3.org/2000/svg" xmlns:xlink="http://www.w3.org/1999/xlink" version="1.1" x="0px" y="0px" viewBox="-346 256 100 125" enable-background="new -346 256 100 100" xml:space="preserve"><g><path d="M-315.667,286.546L-315.667,286.546l-0.01,0.004c-0.64,0.492-4.03,2.291-8.395-1.101c-1.765-1.488-2.784-3.909-2.784-3.909   s1.779,0.614,3.047-0.023c0.857-0.433,1.636-1.596,1.784-1.827c0.363-0.506,0.832-0.954,1.405-1.284   c2.221-1.283,5.09-0.47,6.401,1.812C-312.942,282.441-313.603,285.204-315.667,286.546z"/><g><path d="M-304.383,305.193l-4.084-11.953c-0.319-1.136-1.124-2.89-2.806-3.793l-16.623,19.89h17.895l-3.132-13.656h1.301    l3.671,10.855C-307.272,309.313-303.523,308.17-304.383,305.193z"/><path d="M-322.748,293.019l-3.916,10.779l12.496-14.95h-5.256v0.013h-0.405c-0.018,0-0.033-0.01-0.051-0.01h-9.285l-4.421-6.873    c-0.625-0.97-1.916-1.248-2.881-0.626c-0.968,0.625-1.248,1.913-0.625,2.881l5.037,7.829c0.383,0.595,1.043,0.957,1.752,0.957    H-322.748z"/></g><path d="M-321.843,277.304c0,0,1.474-1.389,3.758-1.317c2.284,0.071,3.479,1.322,3.479,1.322l1.828-4.288l-3.613,0.748   l-1.592-2.692l-1.837,2.704l-3.695-1.173L-321.843,277.304z"/></g><g><g><path d="M-293.766,305.76c2.397,0,4.348-1.949,4.348-4.348c0-2.407-1.946-4.359-4.348-4.359c-2.407,0-4.353,1.949-4.353,4.359    C-298.118,303.811-296.173,305.76-293.766,305.76z"/></g><path d="M-269.647,327.972c1.646-1.614,3.649-2.435,5.955-2.435c2.371,0,4.412,0.82,6.067,2.435   c1.653,1.629,2.492,3.649,2.492,6.015c0,2.306-0.838,4.314-2.492,5.963c-1.65,1.656-3.691,2.496-6.067,2.496   c-2.306,0-4.313-0.84-5.961-2.496c-1.652-1.648-2.492-3.653-2.492-5.963C-272.146,331.617-271.306,329.595-269.647,327.972z    M-266.199,336.508c0.691,0.696,1.532,1.035,2.507,1.035c0.979,0,1.814-0.339,2.511-1.035c0.696-0.699,1.043-1.533,1.043-2.521   c0-0.969-0.347-1.803-1.043-2.502c-0.696-0.696-1.532-1.054-2.511-1.054c-0.975,0-1.815,0.357-2.507,1.054   c-0.697,0.699-1.048,1.533-1.048,2.502C-267.247,334.975-266.896,335.809-266.199,336.508z"/><path d="M-322.582,327.972c-1.646-1.614-3.65-2.435-5.955-2.435c-2.371,0-4.412,0.82-6.07,2.435   c-1.65,1.629-2.492,3.649-2.492,6.015c0,2.306,0.839,4.314,2.492,5.963c1.653,1.656,3.692,2.496,6.07,2.496   c2.304,0,4.312-0.84,5.962-2.496c1.653-1.648,2.488-3.653,2.488-5.963C-320.086,331.617-320.922,329.595-322.582,327.972z    M-326.03,336.508c-0.693,0.696-1.529,1.035-2.506,1.035c-0.979,0-1.814-0.339-2.51-1.035c-0.7-0.699-1.045-1.533-1.045-2.521   c0-0.969,0.345-1.803,1.045-2.502c0.696-0.696,1.532-1.054,2.51-1.054c0.977,0,1.813,0.357,2.506,1.054   c0.698,0.699,1.046,1.533,1.046,2.502C-324.984,334.975-325.332,335.809-326.03,336.508z"/><path d="M-248.74,324.473v-3.939c0,0,0-1.76,0-2.648h0.014v-0.892c0-3.084-2.713-5.58-6.063-5.58h-17.111   c0,0-12.243-16.208-12.248-16.215c0,0-1.264-1.679-2.744-0.692c-1.25,0.833-0.161,2.709,0.037,3.035l8.983,12.109   c0.12,0.176,0.184,0.377,0.184,0.632c0,0.719-0.367,1.073-1.085,1.073l-7.234,0.007l1.343-1.315   c0.795-0.777,0.808-2.049,0.027-2.845c-0.773-0.792-2.051-0.804-2.845-0.03l-4.284,4.196h-0.62   c-0.479-1.587-1.249-3.229-2.544-4.323c-1.925-1.618-4.71-0.547-5.744,0.575c-1.186,1.213-2.13,2.526-2.884,3.759l-26.5,0.028   c0,0-0.693-0.02-1.015-0.02c-6.888,0-12.472,5.587-12.472,12.474c0,0.201,0.049,0.391,0.06,0.592h0.003l-0.004,0.02H-346v4.921   c0,1.734,0.872,2.607,2.616,2.607h2.404c0.208-2.925,1.554-5.419,4.024-7.476c2.476-2.054,5.245-3.077,8.312-3.077   c3.068,0,5.855,1.023,8.365,3.077c2.509,2.057,3.867,4.551,4.077,7.476h40.172c0.212-2.925,1.567-5.419,4.078-7.476   c2.509-2.054,5.299-3.077,8.363-3.077c3.068,0,5.836,1.023,8.312,3.077c2.475,2.057,3.818,4.551,4.027,7.476h2.401   c1.744,0,2.618-0.873,2.618-2.607v-4.921H-248.74z"/></g><text x="-346" y="371" fill="#000000" font-size="5px" font-weight="bold" font-family="'Helvetica Neue', Helvetica, Arial-Unicode, Arial, Sans-serif">Created by Luis Prado</text><text x="-346" y="376" fill="#000000" font-size="5px" font-weight="bold" font-family="'Helvetica Neue', Helvetica, Arial-Unicode, Arial, Sans-serif">from the Noun Project</text></svg>